<?xml version="1.0" encoding="utf-8"?>
<!-- Generator: Adobe Illustrator 22.0.1, SVG Export Plug-In . SVG Version: 6.00 Build 0)  -->
<svg version="1.1" id="Capa_1" xmlns="http://www.w3.org/2000/svg" xmlns:xlink="http://www.w3.org/1999/xlink" x="0px" y="0px"
	 viewBox="0 0 490.1 390.6" style="enable-background:new 0 0 490.1 390.6;" xml:space="preserve">
<g>
	<g>
		<path d="M194.5,248.8l15-24.2c3.6-5.8,1.8-13.3-4-16.9c-5.7-3.6-13.3-1.8-16.9,4l-15,24.2C146.4,279.8,107.6,305,67,305H12.2
			C5.4,305,0,310.5,0,317.3s5.5,12.3,12.2,12.3h54.9C116.4,329.4,162.8,300,194.5,248.8z"/>
		<path d="M486.4,65.5L427,6c-4.8-4.8-12.5-4.8-17.3,0s-4.8,12.5,0,17.3l38.6,38.6c-0.1,0-0.1,0-0.2,0h-56.7
			c-49.2,0-95.7,29.4-127.4,80.6l-9.2,14.9c-3.6,5.8-1.8,13.3,4,16.9c2,1.2,4.2,1.8,6.4,1.8c4.1,0,8.1-2.1,10.4-5.8l9.2-14.9
			c27.2-43.9,66-69,106.6-69H448c0.1,0,0.1,0,0.2,0L409.6,125c-4.8,4.8-4.8,12.5,0,17.3c2.4,2.4,5.5,3.6,8.7,3.6s6.3-1.2,8.7-3.6
			l59.5-59.5C491.2,78,491.2,70.2,486.4,65.5z M460.3,74.3c0-0.1,0-0.1,0-0.2s0-0.1,0-0.2l0.2,0.2L460.3,74.3z"/>
		<path d="M409.6,385.3c2.4,2.4,5.5,3.6,8.7,3.6s6.3-1.2,8.7-3.6l59.5-59.5c4.8-4.8,4.8-12.5,0-17.3L427,249.1
			c-4.8-4.8-12.5-4.8-17.3,0s-4.8,12.5,0,17.3l38.6,38.6c-0.1,0-0.1,0-0.2,0h-54.9c-40.5,0-89.4-23.6-116.6-67.5L212.7,137
			C181,85.7,118.2,61.9,69,61.9H12.2C5.4,61.9,0,67.4,0,74.2s5.5,12.3,12.2,12.3h56.7c40.5,0,95.7,19.7,122.9,63.5l63.9,100.5
			c31.7,51.3,88.2,79.1,137.4,79.1H448c0.1,0,0.1,0,0.2,0l-38.6,38.6C404.9,372.8,404.9,380.5,409.6,385.3z M460.3,317l0.2,0.2
			l-0.2,0.2c0-0.1,0-0.1,0-0.2S460.3,317.1,460.3,317z"/>
	</g>
</g>
</svg>
