<svg xmlns="http://www.w3.org/2000/svg" xmlns:xlink="http://www.w3.org/1999/xlink" viewBox="0 0 113.886 113.886"><defs><style>.a{opacity:0.996;fill:url(#a);}.b{fill:#fff;opacity:0.4;}.c{fill:url(#b);}</style><radialGradient id="a" cx="0.5" cy="0.5" r="0.5" gradientUnits="objectBoundingBox"><stop offset="0" stop-color="#fff" stop-opacity="0.184"/><stop offset="0" stop-color="#fff" stop-opacity="0.749"/><stop offset="1" stop-color="#fff" stop-opacity="0.051"/></radialGradient><linearGradient id="b" x1="0.5" x2="0.5" y2="1" gradientUnits="objectBoundingBox"><stop offset="0" stop-color="#f3618b"/><stop offset="1" stop-color="#fb9f3a"/></linearGradient></defs><g transform="translate(-99 -95)"><circle class="a" cx="56.943" cy="56.943" r="56.943" transform="translate(99 95)"/><g transform="translate(-0.019 0.289)"><path class="b" d="M38.743,0A38.743,38.743,0,0,1,77.486,38.743c0,10.656-15.11,10.655-22.156,17.743-6.933,6.976-5.846,21-16.587,21A38.743,38.743,0,0,1,38.743,0Z" transform="translate(117.755 113.2)"/><path class="b" d="M38.743,0C55.454,0,71.062,11.775,75.165,25.506S62.453,36.44,54.153,48.518s-4.669,28.968-15.41,28.968A38.743,38.743,0,0,1,38.743,0Z" transform="translate(117.755 113.2)"/><path class="b" d="M38.743,0C55.454,0,71.062,11.775,75.165,25.506S62.453,36.44,54.153,48.518s-4.669,28.968-15.41,28.968A38.743,38.743,0,0,1,38.743,0Z" transform="matrix(0.966, 0.259, -0.259, 0.966, 129.074, 104.711)"/><path class="c" d="M4.793,17.778A25.549,25.549,0,0,0,5.759,23.5c-.743-.149-1.56-.3-2.341-.446a7.3,7.3,0,0,1-2.3-.743A2.835,2.835,0,0,1,0,20.081a2.8,2.8,0,0,1,2.526-2.824,4.337,4.337,0,0,1,2.266.52ZM21.214,4.143C19.951,2.062,17.8-.241,14.3.056a7.183,7.183,0,0,0-4.273,1.969A13.755,13.755,0,0,0,5.684,9.864a25.947,25.947,0,0,0-.372,5.647c.037,1.04.037,1.969.149,2.935a32.238,32.238,0,0,0,1.672,7.5,18.729,18.729,0,0,0,3.381,5.8,7.361,7.361,0,0,0,1.523,1.523A2.542,2.542,0,0,0,15.9,31.116c0-.929-.409-1.189-.855-1.858a9.609,9.609,0,0,1-.706-1.152c-.111-.186-.186-.334-.3-.52h0s-1.6-1.858-2.638-7.17a23.592,23.592,0,0,1-.52-3.567h0q-.111-1.226-.111-2.452c0-3.344.557-6.13,2.081-8.062a3.194,3.194,0,0,1,2.192-1.3c1.449.037,2.155,1.523,2.526,2.6a13,13,0,0,1-.557,8.694,5.257,5.257,0,0,1-2.3,2.861,4.111,4.111,0,0,1-2.824.186s-.149,1.412,1.412,5.536A6.741,6.741,0,0,0,17.239,23.8c3.269-2.006,5.387-5.982,5.833-10.626a14.85,14.85,0,0,0-1.858-9.028Z" transform="translate(140.209 132.33)"/></g></g></svg>